<svg xmlns="http://www.w3.org/2000/svg" width="675" height="172" viewBox="0 0 675 172">
  <g id="Group_5" data-name="Group 5" transform="translate(-188 -82)">
    <rect id="Rectangle_2" data-name="Rectangle 2" width="675" height="172" transform="translate(188 82)" fill="#fff" opacity="0.804"/>
    <g id="Group_4" data-name="Group 4" transform="translate(205.58 95.38)">
      <g id="Group_1" data-name="Group 1" transform="translate(0 0)">
        <path id="Path_1" data-name="Path 1" d="M25.475,14.568l1.374.107q7.59.585,17.566,6.062Q73.086,33.94,98.478,35.89l4.373.337A120.309,120.309,0,0,0,147.8,31.076a40.9,40.9,0,0,1,6-2.114l.377.029c1.075.438,1.58,1.115,1.508,2.031l-.029.374q-.12,1.592-4.846,2.988-5.461,2.378-18.454,4.646a132.79,132.79,0,0,1-32.083,1.334Q68.385,37.91,35.407,21.02a35.513,35.513,0,0,0-9.5-2.208l-.126-.011Q14.19,17.911,7.6,24.754a10.536,10.536,0,0,0-2.133,5.271,14.5,14.5,0,0,0,4.589,11.79,24.083,24.083,0,0,0,4.916,3.111,3.038,3.038,0,0,1,.508,1.954,2.314,2.314,0,0,1-2.416,1.606A18.5,18.5,0,0,1,2.808,38.87a21.148,21.148,0,0,1-1.516-9.291q.678-8.8,11.638-13.274A30.311,30.311,0,0,1,25.475,14.568Z" transform="translate(-1.239 12.715)" fill="#6d9cd3"/>
        <path id="Path_2" data-name="Path 2" d="M96.633,4.307h.377q4.667,0,5.167,10.149v1.66q0,6.327-6.233,18.416-4.667,8.019-15.161,14.69a4.692,4.692,0,0,0-2.411,3.916q-2.474,12.5-2.507,16.414l-.029-.094h.249q1.379,0,9.147-6.578,4.92-4.2,6.861-5.076,1.816,0,1.815,1.66,0,1.034-6.295,6.391-5.858,4.354-9.272,7.268-.4.782.187.783.533,1.219,5.859,3.381a23.294,23.294,0,0,0,7.361,1.318q8.267,0,16.067-7.77a36.472,36.472,0,0,1,5.076-5.637h.658q1.784.593,1.786,2.037,0,1.407-2.914,4.135-1.315,2.285-6.923,6.514Q100.047,81.8,95.128,81.8a17.587,17.587,0,0,1-5.135.625q-7.706,0-14.942-5.888h.029q-.469,0-.468,6.265-.253,5.2-.251,6.952.249,3.071.251,4.918,0,2.257-1.818,2.662-2.63,0-2.63-3.633a6.245,6.245,0,0,1-.126-2.037q0-15.284,3.884-38.653V52.7l-.032-.094A59.439,59.439,0,0,0,66,54.831a69.64,69.64,0,0,1-12.843,1.66q-3.38-.124-5.386-.126-.878,0-1.66-1.47,0-2.225,4.29-2.227a64.78,64.78,0,0,0,24.276-4.635q.658,0,2.537-7.455a163.45,163.45,0,0,1,9.211-24.056Q90.744,8,92.749,6.122,95.315,4.306,96.633,4.307ZM80.627,44.556l.029.094q1.1,0,8.489-7.265a47.819,47.819,0,0,0,5.888-9.8q2.947-7.674,2.946-11.09V15.269q-.313-6.64-1.753-6.64-1.977.469-5.891,9.179Q81.442,38.324,80.627,44.556Z" transform="translate(73.826 -4.307)" fill="#6d9cd3"/>
        <path id="Path_3" data-name="Path 3" d="M85.246,23.865l1.689.064a5.285,5.285,0,0,1,5.169,3.258,65.1,65.1,0,0,1,1.66,7.078,8.342,8.342,0,0,0,8.27,5.482q5.669,0,12.528-6.578a9.416,9.416,0,0,1,1.943-.313q1.471.686,1.473,1.786,0,1.6-3.039,3.758a24.852,24.852,0,0,1-10.4,5.167c-.917.086-1.628.126-2.13.126h-.5q-8.4,0-12.122-7.61l-.251-.158a41.591,41.591,0,0,1-2,3.79q-4.731,6.359-10.3,6.359H77.1q-4.262,0-6.485-4.76a7.928,7.928,0,0,1-.438-2.414q.188-5.481,5.386-10.994A14.03,14.03,0,0,1,85.246,23.865Zm-11,14.41q0,3.163,2.726,3.977H77.6q4.45,0,9.053-9.553a14.589,14.589,0,0,0,1.315-4.322v-.751a5.711,5.711,0,0,1-1.941.029Q79.45,27.531,75.723,34.2A7.225,7.225,0,0,0,74.25,38.275Z" transform="translate(114.093 28.412)" fill="#6d9cd3"/>
        <path id="Path_4" data-name="Path 4" d="M101.441,23.865l1.692.064a5.281,5.281,0,0,1,5.167,3.258,65.106,65.106,0,0,1,1.66,7.078,8.344,8.344,0,0,0,8.27,5.482q5.669,0,12.531-6.578a9.4,9.4,0,0,1,1.941-.313q1.471.686,1.473,1.786,0,1.6-3.039,3.758a24.841,24.841,0,0,1-10.4,5.167c-.919.086-1.63.126-2.13.126h-.5q-8.392,0-12.122-7.61l-.251-.158a39.851,39.851,0,0,1-2,3.79Q99,46.074,93.423,46.074H93.3q-4.258,0-6.485-4.76a7.928,7.928,0,0,1-.438-2.414q.188-5.481,5.389-10.994A14.019,14.019,0,0,1,101.441,23.865ZM90.448,38.275q0,3.163,2.724,3.977H93.8q4.446,0,9.051-9.553a14.59,14.59,0,0,0,1.315-4.322v-.751a5.711,5.711,0,0,1-1.941.029q-6.579-.124-10.307,6.549A7.22,7.22,0,0,0,90.448,38.275Z" transform="translate(141.186 28.412)" fill="#6d9cd3"/>
        <path id="Path_5" data-name="Path 5" d="M127.784,8.572h.409a3.253,3.253,0,0,1,1.879,3.29v.126q0,6.672-8.206,26.374-3.2,7.766-12.247,21.488a4.916,4.916,0,0,0-1.724,3.258v.374q0,1.816,2.443,5.64a7.909,7.909,0,0,0,5.418,2.472h1.6q3.288-.184,9.585-3.633,5.545-4.98,7.768-7.361,1.568-1.908,2.726-1.911h.438a2.157,2.157,0,0,1,1.473,1.975q-.409,2.221-9.337,9.585-6.984,5.04-14,5.041-9.4,0-12.528-10.368a27.179,27.179,0,0,1-.535-3.162,38.565,38.565,0,0,1,3.133-14.848q0-1.191,2.069-5.512a116.365,116.365,0,0,1,9.3-21.175q3.7-6.267,3.948-6.265a21.235,21.235,0,0,0,1.847-3.039A5.944,5.944,0,0,1,127.784,8.572Zm-20.108,46.8a1.5,1.5,0,0,1,.094.658l-.094.158h-.281q1-1.066,5.418-8.77,4.386-7.518,9.959-22.4,2.478-8.115,2.475-9.868-.124-1.095-.126-.625h.658q-.97,0-6.575,10.868a179.712,179.712,0,0,0-9.836,23.931Q108.365,52.427,107.675,55.37Z" transform="translate(168.907 2.828)" fill="#6d9cd3"/>
        <path id="Path_6" data-name="Path 6" d="M187.927,27.193q1.941.441,1.941,2.037,0,1.945-14.626,8.489-9.867,3.821-16.35,3.822-11.559,0-13.907-3.039c-.291-.147-.417-.219-.377-.219a37.946,37.946,0,0,0-1.251,4.009q-6.86,15.256-9.021,16.257-2.382,2.911-5.137,2.913h-.5q-3.945,0-4.416-7.989-.846-9.647-1.85-12.715-2.6-6.672-5.105-7.957a5.324,5.324,0,0,1-2.192-1.847v-.783a1.945,1.945,0,0,1,1.785-1.222h.815q3.38.533,6.733,5.386,2.883,5.545,2.881,7.77a79.165,79.165,0,0,1,1.5,8.957h-.19a49.783,49.783,0,0,0,.783,6.327h.158q1.756-.4,5.169-7.455a80.483,80.483,0,0,0,5.95-14.314q1.6-4.418,3.258-4.418h.5q1.88,0,3.322,4.135a4.112,4.112,0,0,0,3.069,1.63,19.747,19.747,0,0,0,6.514,1h.625q6.487,0,17.2-4.667,10.994-5.986,11.432-5.985A7.276,7.276,0,0,1,187.927,27.193Z" transform="translate(189.296 33.98)" fill="#6d9cd3"/>
        <path id="Path_7" data-name="Path 7" d="M152.06,26.889q5.04,0,6.607,3.726a7.527,7.527,0,0,1,.564,2.82,16.675,16.675,0,0,1-.5,3.852q0,.377.593.377h1.882q9.8,0,21.611-9.021a5.4,5.4,0,0,1,2.694-1h.438a1.965,1.965,0,0,1,1.222,1.818q-.156,1.564-5.479,5.012a40.8,40.8,0,0,1-22.931,7.142,9.272,9.272,0,0,0-1.315-.126q-.625,0-2.13,2.317-4.009,4.823-8.9,4.825h-1.128q-4.258,0-5.888-4.857a11.439,11.439,0,0,1-.155-1.941V41.2q0-7.894,8.206-13.375A14.642,14.642,0,0,1,152.06,26.889Zm-8.992,14.378a3.5,3.5,0,0,0,2.069,3.6,2.219,2.219,0,0,0,1.034.19q3.131,0,6.295-4.418l.061-.374a23.567,23.567,0,0,0-2.849-1.5,8.534,8.534,0,0,1-3.665-5.044l.219.126h-.158q-.906.409-2.756,5.263C143.32,39.168,143.237,39.887,143.069,41.267Zm7.268-7.957q0,1.5,2.6,2.946a3.349,3.349,0,0,0,1.377.532h.126a20.934,20.934,0,0,0,.6-3.165q0-2.787-2.192-2.788Q150.338,31.087,150.336,33.309Z" transform="translate(229.642 33.471)" fill="#6d9cd3"/>
        <path id="Path_8" data-name="Path 8" d="M171.642,23.443h.564q4.607.629,4.605,3.477-.69,4.009-7.268,8.27a94.2,94.2,0,0,1-9.711,3.288.351.351,0,0,0-.187.283v.126q1.315,4.354,4.1,5.95a13.673,13.673,0,0,0,6.64,1.537h1.128q12.405,0,22.928-10.587,1.568-2.819,3.007-2.82h.126q1.347,0,2.069,1.847-.878,3.48-10.681,10.652-9.991,4.478-15.444,4.48-.593,0-3.352.249-2.722,0-8.425-2.1a22.286,22.286,0,0,1-5.325-5.921q-.69,0-1.222-4.1,0-2.285,3.571-7.706,5.389-5.072,8.612-5.763A9.651,9.651,0,0,1,171.642,23.443ZM160.9,34.282c0-.04-.136-.061-.409-.061h.126q1.816,0,6.736-2.288,4.759-3.568,4.761-4.7c0-.144-.115-.219-.345-.219h-.281q-6.17,1.536-9.272,5.357Q160.9,33.906,160.9,34.282Z" transform="translate(256.324 27.706)" fill="#6d9cd3"/>
        <path id="Path_9" data-name="Path 9" d="M195.836,11.174q1.724,0,2.694,3.069h.062l-.345-.719q0,4.354-3.7,14.565a.312.312,0,0,0-.061.158c0-.043.168-.053.5-.032q4.07,0,21.017-5.012h.909q2.253.188,2.253,2.037,0,2-7.861,3.507-12.874,3.665-16.727,3.665-2.253,0-3.258,3.854a148.678,148.678,0,0,1-8.361,16.225q-3.007,4.166-3.007,5.324v.438l.281,1.473q1.347,4.074,6.108,9.553a10.167,10.167,0,0,0,6.233,2.288h.377a15.609,15.609,0,0,0,9.711-3.635,20.014,20.014,0,0,0,6.765-7.11,32,32,0,0,1,3.445-5.982,2.375,2.375,0,0,1,1.254-.438h.187a2.1,2.1,0,0,1,1.973,2.16q-.938,3.1-5.669,10.023a30.944,30.944,0,0,1-6.765,5.7,20.9,20.9,0,0,1-9.9,2.975h-2q-7.2,0-11.4-6.546-4.009-4.226-5.637-12.467a5.232,5.232,0,0,1-.158-1.473h-.345l.345.722V52.3a1.946,1.946,0,0,1,.032-.535,1,1,0,0,1-.032-.374q.124-2.758-.219-2.756l.345.719q0-3.757,4.041-14.22a3.246,3.246,0,0,0,.094-.877v-.251c0,.166-.176.219-.532.155q-2.225.128-2.913.251c-.96-.083-1.807-.126-2.537-.126h-3.226q-2.819-.658-2.82-1.786v-.249q0-.754,2-1.66.249,0,1.786.123,6.672-.373,7.142-.374h1.628q1.6,0,3.445-4.605a38.262,38.262,0,0,0,3.039-5.357,5.394,5.394,0,0,0,1.473-2.16q4.916-7.049,7.455-7.049ZM179.547,50.2l-.345-.719V50.83c-.021-.126-.144-.187-.374-.187q.657-.345,3.413-5.108,2.506-4.635,5.544-11.558v-.345c0-.144-.032-.219-.094-.219h-.6q-3.131.221-3.13,1.128-4.763,11.246-4.763,14Q179.2,50.2,179.547,50.2Zm6.672-20.734V29.5c-.04-.1.075-.155.345-.155,1.965,0,3.1-.417,3.416-1.254a106.421,106.421,0,0,0,3.665-11.371c.019.1,0,.158-.064.158h.251Q187.629,24.581,186.219,29.468Z" transform="translate(276.046 7.181)" fill="#6d9cd3"/>
        <path id="Path_10" data-name="Path 10" d="M319.485,13.658h1.128a15.752,15.752,0,0,1,12.373,5.421A17,17,0,0,1,336.431,29.6v1.63q0,6.7-6.8,12.4a33.334,33.334,0,0,1-7.987,4.605q-14.6,6.074-37.619,6.076a211.783,211.783,0,0,1-35.459-3.381,131.77,131.77,0,0,0-21.675-1.63,164.958,164.958,0,0,0-41.348,5.169q-2.037-.565-2.037-2.069v-.625q0-1.628,6.14-2.662a167.623,167.623,0,0,1,37.245-4.135,183.434,183.434,0,0,1,32.326,3.258,179.185,179.185,0,0,0,24.3,1.753h1.128q28.852,0,42.256-9.617,5.325-4.446,5.325-9.772,0-8.708-6.172-11.558a18.013,18.013,0,0,0-6.327-1.189q-.561,0-5.231.5-1.6,0-1.815-2.382Q312.69,13.658,319.485,13.658Z" transform="translate(303.688 11.337)" fill="#6d9cd3"/>
      </g>
      <path id="Path_1-2" data-name="Path 1" d="M6.28,10.13,10.487,2.78h1.785L7.052,11.5v5.847H5.507V11.5L.3,2.78H2.082Zm26.5,5.67L42.048,4.189H32.777V2.78H43.74V4.6L34.593,15.935H43.74v1.41H32.777ZM75.27,2.78v1.41H67.1V9.117h7.685v1.41H67.1v5.409h8.53v1.41H65.559V2.78Zm32.95,4.145a4.375,4.375,0,0,1-.131,1.065,4.1,4.1,0,0,1-.386.987,3.773,3.773,0,0,1-.642.851,4.065,4.065,0,0,1-.888.668,2.36,2.36,0,0,1,.924.444,2.215,2.215,0,0,1,.564.689,2.881,2.881,0,0,1,.282.851,5.583,5.583,0,0,1,.078.94v2.2a3.221,3.221,0,0,0,.131.914,4.139,4.139,0,0,0,.329.809H106.8a1.4,1.4,0,0,1-.162-.381,3.576,3.576,0,0,1-.089-.444q-.031-.23-.042-.444t-.01-.371V13.388a2.552,2.552,0,0,0-.141-.83,1.93,1.93,0,0,0-.459-.736,2.322,2.322,0,0,0-.83-.522,3.445,3.445,0,0,0-1.242-.2H99.417v6.244H97.872V2.78h5.951a4.53,4.53,0,0,1,1.885.371,4.326,4.326,0,0,1,1.378.961,4.144,4.144,0,0,1,1.133,2.814Zm-8.8,2.809h4.406a2.727,2.727,0,0,0,1.086-.219,2.9,2.9,0,0,0,.9-.606,2.942,2.942,0,0,0,.621-.9,2.671,2.671,0,0,0,.23-1.107,2.7,2.7,0,0,0-.214-1.081,2.616,2.616,0,0,0-.6-.861,2.713,2.713,0,0,0-.9-.569,3.076,3.076,0,0,0-1.128-.2H99.417ZM140.407,2.78v1.41h-7.935V9.117h6.891v1.41h-6.891v6.818h-1.545V2.78Zm34.411,7.267a10.479,10.479,0,0,1-.433,3.091,7.039,7.039,0,0,1-1.269,2.428,5.739,5.739,0,0,1-2.052,1.582,7.148,7.148,0,0,1-5.565,0,5.691,5.691,0,0,1-2.046-1.582,7.09,7.09,0,0,1-1.263-2.428,10.479,10.479,0,0,1-.433-3.091,10.389,10.389,0,0,1,.433-3.075,7.039,7.039,0,0,1,1.263-2.417A5.716,5.716,0,0,1,165.5,2.978a7.148,7.148,0,0,1,5.565,0,5.765,5.765,0,0,1,2.052,1.577,6.988,6.988,0,0,1,1.269,2.417A10.389,10.389,0,0,1,174.818,10.047Zm-1.556,0a8.351,8.351,0,0,0-.386-2.636,6,6,0,0,0-1.06-1.973,4.5,4.5,0,0,0-3.534-1.655,4.594,4.594,0,0,0-1.963.423,4.482,4.482,0,0,0-1.577,1.232,5.987,5.987,0,0,0-1.049,1.973,8.456,8.456,0,0,0-.381,2.636,8.506,8.506,0,0,0,.381,2.642,5.98,5.98,0,0,0,1.049,1.979,4.617,4.617,0,0,0,5.492,1.237,4.587,4.587,0,0,0,1.582-1.237,6,6,0,0,0,1.06-1.979A8.4,8.4,0,0,0,173.263,10.047ZM198.83,2.78l7.413,12.592V2.78h1.545V17.345h-2.067L198.308,4.763V17.345h-1.545V2.78Zm41.96,0v1.41h-4.824V17.345h-1.545V4.189h-4.813V2.78Zm31.519,0v1.41h-8.165V9.117h7.685v1.41h-7.685v5.409h8.53v1.41H262.6V2.78Zm24.336,0V17.345H295.1V2.78Zm25.1,0,7.413,12.592V2.78H330.7V17.345h-2.067L321.222,4.763V17.345h-1.545V2.78Z" transform="translate(154.733 120.838)" fill="#5a5b5e"/>
    </g>
  </g>
</svg>
