<svg xmlns="http://www.w3.org/2000/svg" width="588" height="588" viewBox="0 0 588 588">
  <g id="Group_3" data-name="Group 3" transform="translate(-1214 -393)">
    <rect id="Rectangle_1" data-name="Rectangle 1" width="588" height="588" transform="translate(1214 393)" fill="#6d9cd3"/>
    <path id="Path_2" data-name="Path 2" d="M296.629,4.307H298.5q23.141,0,25.619,50.324v8.23q0,31.371-30.907,91.317-23.141,39.761-75.174,72.842-11.948,8.091-11.955,19.417-12.266,61.967-12.432,81.39l-.146-.464h1.233q6.839,0,45.354-32.617,24.393-20.815,34.022-25.169,9.006,0,9,8.23,0,5.129-31.212,31.689-29.045,21.59-45.977,36.037-2.008,3.877.928,3.883,2.644,6.044,29.052,16.766,19.562,6.541,36.5,6.534,40.994,0,79.667-38.528,16.938-21.59,25.169-27.952h3.26q8.847,2.942,8.854,10.1,0,6.978-14.446,20.5-6.521,11.332-34.327,32.3-27.018,19.423-51.411,19.417-9.94,3.1-25.46,3.1-38.21,0-74.088-29.2h.146q-2.326,0-2.319,31.066Q186.193,419.31,186.2,428q1.233,15.228,1.246,24.387,0,11.193-9.012,13.2-13.042,0-13.042-18.012c-.424,0-.623-3.366-.623-10.1q0-75.784,19.257-191.66v-1.551l-.159-.464q-4.354,0-39.138,11.027-40.854,8.23-63.684,8.23-16.759-.616-26.706-.623-4.354,0-8.23-7.289,0-11.034,21.272-11.04A321.209,321.209,0,0,0,187.75,221.123q3.26,0,12.578-36.964A810.46,810.46,0,0,1,246,64.876q21.431-42.246,31.371-51.57Q290.095,4.3,296.629,4.307ZM217.266,203.88l.146.464q5.447,0,42.093-36.023a237.108,237.108,0,0,0,29.2-48.614q14.612-38.051,14.605-54.989V58.66q-1.551-32.922-8.694-32.922-9.8,2.326-29.211,45.513Q221.308,172.979,217.266,203.88Z" transform="translate(1289.891 451.693)" fill="#fff"/>
  </g>
</svg>
